<svg width="40" height="40" viewBox="0 0 40 40" fill="none" xmlns="http://www.w3.org/2000/svg">
<path fill-rule="evenodd" clip-rule="evenodd" d="M13.9898 26.0104C14.3413 26.3619 14.9111 26.3619 15.2626 26.0104L20.0002 21.2729L24.7377 26.0104C25.0892 26.3619 25.659 26.3619 26.0105 26.0104C26.362 25.6589 26.362 25.0891 26.0105 24.7376L21.2729 20.0001L26.0106 15.2624C26.3621 14.9109 26.3621 14.3411 26.0106 13.9896C25.6592 13.6381 25.0893 13.6381 24.7378 13.9896L20.0002 18.7273L15.2625 13.9896C14.911 13.6381 14.3411 13.6381 13.9897 13.9896C13.6382 14.3411 13.6382 14.9109 13.9897 15.2624L18.7274 20.0001L13.9898 24.7376C13.6383 25.0891 13.6383 25.6589 13.9898 26.0104Z" fill="#111111"/>
</svg>
