<svg width="14" height="14" viewBox="0 0 14 14" fill="none" xmlns="http://www.w3.org/2000/svg">
<g clip-path="url(#clip0_2_1299)">
<path d="M13.125 8.41346V5.58654H11.476C11.2687 4.93634 10.9294 4.34269 10.4865 3.84327L11.3158 2.42038L8.87519 0.988075L8.04596 2.40154C7.70673 2.32615 7.35808 2.27904 7 2.27904C6.64192 2.27904 6.29327 2.32615 5.95404 2.40154L5.12481 0.988075L2.68423 2.42038L3.51346 3.84327C3.06115 4.34269 2.73135 4.92692 2.52404 5.58654H0.875V8.41346H2.52404C2.73135 9.06365 3.07058 9.65731 3.51346 10.1567L2.68423 11.5796L5.12481 13.0119L5.95404 11.5985C6.29327 11.6738 6.64192 11.721 7 11.721C7.35808 11.721 7.70673 11.6738 8.04596 11.5985L8.87519 13.0119L11.3158 11.5796L10.4865 10.1567C10.9388 9.65731 11.2687 9.07308 11.476 8.41346H13.125Z" stroke="#C39D6D" stroke-width="1.3125"/>
<path d="M7 9C8.10457 9 9 8.10457 9 7C9 5.89543 8.10457 5 7 5C5.89543 5 5 5.89543 5 7C5 8.10457 5.89543 9 7 9Z" fill="#C39D6D"/>
</g>
<defs>
<clipPath id="clip0_2_1299">
<rect width="14" height="14" fill="white"/>
</clipPath>
</defs>
</svg>
