<svg width="14" height="14" viewBox="0 0 14 14" fill="none" xmlns="http://www.w3.org/2000/svg">
<g clip-path="url(#clip0_18_175)">
<path d="M13.125 8.41345V5.58653H11.476C11.2687 4.93634 10.9294 4.34268 10.4865 3.84326L11.3158 2.42038L8.87519 0.988068L8.04596 2.40153C7.70673 2.32614 7.35808 2.27903 7 2.27903C6.64192 2.27903 6.29327 2.32614 5.95404 2.40153L5.12481 0.988068L2.68423 2.42038L3.51346 3.84326C3.06115 4.34268 2.73135 4.92691 2.52404 5.58653H0.875V8.41345H2.52404C2.73135 9.06364 3.07058 9.6573 3.51346 10.1567L2.68423 11.5796L5.12481 13.0119L5.95404 11.5985C6.29327 11.6738 6.64192 11.721 7 11.721C7.35808 11.721 7.70673 11.6738 8.04596 11.5985L8.87519 13.0119L11.3158 11.5796L10.4865 10.1567C10.9388 9.6573 11.2687 9.07307 11.476 8.41345H13.125Z" stroke="white" stroke-width="1.3125"/>
<path d="M7 9C8.10457 9 9 8.10457 9 7C9 5.89543 8.10457 5 7 5C5.89543 5 5 5.89543 5 7C5 8.10457 5.89543 9 7 9Z" fill="white"/>
</g>
<defs>
<clipPath id="clip0_18_175">
<rect width="14" height="14" fill="white"/>
</clipPath>
</defs>
</svg>
